#tb 0: 1001/30000
#media_type 0: video
#codec_id 0: rawvideo
#dimensions 0: 720x480
#sar 0: 40/33
0,          0,          0,        1,   518400, 0x8f882e4d
0,          1,          1,        1,   518400, 0xc5694144
0,          2,          2,        1,   518400, 0xcf0e9e3a
0,          3,          3,        1,   518400, 0xf620e459
0,          4,          4,        1,   518400, 0x4566453e
